<?xml version="1.0" encoding="utf-8"?>
<!-- Generator: Adobe Illustrator 19.0.0, SVG Export Plug-In . SVG Version: 6.00 Build 0)  -->
<svg version="1.1" xmlns="http://www.w3.org/2000/svg" xmlns:xlink="http://www.w3.org/1999/xlink" x="0px" y="0px"
	 viewBox="0 0 800 800" style="enable-background:new 0 0 800 800;" xml:space="preserve">
<style type="text/css">
	.st0{fill-rule:evenodd;clip-rule:evenodd;fill:#FFFFFF;}
	.st1{fill-rule:evenodd;clip-rule:evenodd;fill:#1A1A1A;}
	.st2{fill-rule:evenodd;clip-rule:evenodd;fill:#E10109;}
	.st3{fill-rule:evenodd;clip-rule:evenodd;fill:#231F20;}
	.st4{fill:#E10109;}
</style>
<g id="_x36_">
	<g>
		<polyline class="st0" points="0,0 0,0 800,0 		"/>
		<path class="st1" d="M417.3,337.3v-5.2h5.4c3.1,0,5.7-2.5,5.7-5.7c0-3.1-2.5-5.7-5.7-5.7h-5.4v-3.6H447
			c20.2,0,36.6-16.4,36.6-36.6V151.8c0-20.2-16.4-36.6-36.6-36.6h-93.9c-20.2,0-36.7,16.4-36.7,36.6v128.8
			c0,20.2,16.4,36.6,36.7,36.6h29.7v3.6h-5.4c-3.1,0-5.7,2.5-5.7,5.7c0,3.1,2.5,5.7,5.7,5.7h5.4v5.2c0,3.1,2.5,5.7,5.6,5.7h23.2
			C414.7,342.9,417.3,340.4,417.3,337.3L417.3,337.3z M377.1,325.2h46c0.7,0,1.3,0.6,1.3,1.3l0,0c0,0.7-0.6,1.3-1.3,1.3h-46
			c-0.7,0-1.3-0.6-1.3-1.3l0,0C375.8,325.8,376.4,325.2,377.1,325.2L377.1,325.2z M327.7,280.5V151.8c0-14,11.3-25.3,25.3-25.3H447
			c14,0,25.3,11.3,25.3,25.3v128.8c0,14-11.4,25.3-25.3,25.3h-93.9C339.1,305.9,327.7,294.5,327.7,280.5L327.7,280.5z M394,317.2
			h11.9v3.6H394V317.2L394,317.2z M394,335.7v-3.6h11.9v3.6H394L394,335.7z"/>
		<path class="st2" d="M329.3,158v121.1c0,13.6,11.1,24.8,24.8,24.8h91.8c13.7,0,24.8-11.1,24.8-24.8V158H329.3L329.3,158z"/>
		<path class="st0" d="M362.4,280.1h75.1c4.8,0,8.7-3.9,8.7-8.7v-55.6c0-4.8-3.9-8.7-8.7-8.7h-75.1c-4.8,0-8.7,3.9-8.7,8.7v55.6
			C353.8,276.2,357.7,280.1,362.4,280.1L362.4,280.1z"/>
		<polygon class="st3" points="423.6,242.4 423.6,232.6 433.5,232.6 433.5,226 423.6,226 423.6,216.1 417.1,216.1 417.1,226 
			407.2,226 407.2,232.6 417.1,232.6 417.1,242.4 423.6,242.4 		"/>
		<path class="st3" d="M377.6,262.6l-1.5,4.6c-0.5,1.5-1.2,2.6-2,3.4c-0.8,0.8-1.8,1.2-2.9,1.2c-1.4,0-2.6-0.5-3.5-1.4
			c-0.9-0.9-1.4-2.1-1.4-3.5c0-0.6,0-1.1,0.1-1.6c0.1-0.5,0.2-0.9,0.4-1.4l11.7-31.8c0.9-2.3,1.9-4,3.2-5c1.3-1.1,2.8-1.6,4.7-1.6
			c1.8,0,3.3,0.5,4.5,1.5c1.3,1,2.3,2.5,3,4.4l11.4,32.3c0.2,0.7,0.4,1.3,0.5,1.8c0.1,0.5,0.2,1,0.2,1.4c0,1.4-0.5,2.6-1.4,3.5
			c-0.9,0.9-2.2,1.3-3.6,1.3c-1.3,0-2.4-0.4-3.3-1.2c-0.9-0.8-1.6-2.1-2.1-3.8l-1.3-4.2H377.6L377.6,262.6z M380.5,253.1h10.8
			l-5.2-16.7L380.5,253.1L380.5,253.1z"/>
		<path class="st1" d="M400,91c8.5,0,15.5,6.9,15.5,15.5c0,8.5-6.9,15.5-15.5,15.5c-8.5,0-15.5-6.9-15.5-15.5
			C384.5,97.9,391.5,91,400,91L400,91z M400,97.8c4.8,0,8.7,3.9,8.7,8.7c0,4.8-3.9,8.7-8.7,8.7c-4.8,0-8.7-3.9-8.7-8.7
			C391.3,101.7,395.2,97.8,400,97.8L400,97.8z"/>
		<path class="st4" d="M395.3,348.1c0-2,1.6-3.7,3.7-3.7c2,0,3.7,1.6,3.7,3.7c0,27.6-18.7,55.6-37.5,83.7
			c-20,29.9-40.1,60-36.3,88.3c2.8,20.9,11.9,37,24.9,48.1c12.5,10.7,28.7,16.8,46.3,18.2c14,1.1,29-0.8,43.8-5.7
			c-9.5-9.6-21.1-18.5-32.5-27.3c-11-8.5-21.9-16.9-30.7-25.7c-8.4-8.4-14.1-18.5-17-28.7c-2.3-8.2-2.7-16.5-1.2-24.2
			c1.5-7.8,5.1-15,10.7-20.6c4.7-4.8,11-8.5,18.7-10.6c16.9-4.7,38.3,3.1,53.9,13.5c5.1-12.1,15.4-23.6,31.7-27.1
			c13.6-2.9,25.5-1.5,35.2,3.1c7.1,3.3,13,8.1,17.5,14.1c4.5,5.9,7.7,12.9,9.3,20.4c2.5,11.7,1.3,24.7-4.4,37.1
			c-18,38.8-46.2,64.8-76.4,78.3c-0.7,0.3-1.4,0.6-2.2,1c7.7,9.2,13.3,19.2,15.4,30.3c0.5,2.8,0.8,5.4,0.8,8.1c0,15-7.9,28.6-19,39
			c-11,10.2-25.2,17.4-38.2,19.9c-3.3,0.6-6.5,1-9.6,1c-2,0-3.7-1.6-3.7-3.7c0-2,1.6-3.7,3.7-3.7c2.6,0,5.4-0.3,8.2-0.8
			c11.7-2.2,24.6-8.7,34.6-18c9.8-9.1,16.7-20.8,16.7-33.6c0-2.2-0.2-4.5-0.6-6.7c-2-10.4-7.7-19.9-15.4-28.8
			c-16.8,6.1-33.9,8.4-49.9,7.2c-19.1-1.5-36.8-8.2-50.5-20c-14.3-12.2-24.3-29.9-27.4-52.7c-4.1-31,16.7-62.2,37.5-93.3
			C377.2,400.6,395.3,373.5,395.3,348.1L395.3,348.1z M451.4,577.9c1.4-0.6,2.9-1.2,4.3-1.8c28.7-12.9,55.6-37.6,72.7-74.7
			c5-10.9,6.1-22.3,3.9-32.5c-1.4-6.4-4.1-12.4-7.9-17.4c-3.8-5-8.8-9.1-14.8-11.9c-8.4-3.9-18.7-5.1-30.6-2.5
			c-14.3,3.1-23.1,13.6-27.1,24.4c1,0.8,1.9,1.5,2.8,2.3c4,3.5,7.2,7,9.5,10.3c2.5,3.7,3.8,7.4,3.4,10.6c-0.4,3.9-2.8,7-7.6,8.5v0
			l0,0c-6.1,2-10.8,0.2-14-3.9c-2.1-2.7-3.3-6.4-3.8-10.6c-0.4-3.9-0.1-8.5,0.9-13.1l0.3-1.4c-14.2-10-34.2-17.9-49.5-13.6
			c-6.5,1.8-11.6,4.8-15.5,8.7c-4.6,4.6-7.5,10.5-8.7,16.9c-1.3,6.6-0.9,13.7,1.1,20.9c2.5,9.1,7.6,18,15.1,25.5
			c8.5,8.5,19.1,16.7,30,25.1C428.4,557.2,441.1,567.1,451.4,577.9L451.4,577.9z M449.8,469.2c-0.5,3.1-0.6,6.1-0.3,8.7
			c0.3,2.9,1.1,5.3,2.3,6.9c1.3,1.6,3.2,2.3,5.9,1.4h0c1.7-0.6,2.5-1.3,2.6-2.3c0.1-1.5-0.7-3.5-2.3-5.9
			C456.2,475.3,453.3,472.3,449.8,469.2L449.8,469.2L449.8,469.2z"/>
	</g>
</g>
<g id="Layer_1">
</g>
</svg>
